<svg xmlns="http://www.w3.org/2000/svg" viewBox="0 0 1138.73 1136.36">
    <defs>
        <style>
            .cls-1{
                fill:#fff;
                filter: drop-shadow(0px 0px 50px #fff);
            }
        </style>
    </defs>
    <title>Asset 1</title>
    <g id="Layer_2" data-name="Layer 2">
        <g id="Layer_1-2" data-name="Layer 1">
            <path class="cls-1" d="M555.47,1.32c-157.7,13-266.6,54.5-364.9,139-33.6,28.9-78.3,76.7-98.1,105-75.1,107-106,244.8-87,387.4,4,29.8,13.8,72.7,23,101,27.6,84.7,69.4,156,129.3,220.7,16.1,17.4,60.8,58.5,76.7,70.5,76.9,58.1,181,96.9,290.5,108.2,92.9,9.6,185.7-2.2,266.4-34.1,54.7-21.6,100.6-49.9,151.6-93.7,15.2-13,52.9-51.1,65-65.5,65.8-79.3,103.1-165,119.4-274.6,4.3-28.8,6.2-46.8,9.6-91,2.5-33.1,2.5-34.7-1-19.5-32.9,146.2-150.8,291.9-292.5,361.5-81.1,39.8-169.2,54-262.5,42.5-97-12.1-186.6-51.9-250.4-111.3-15.4-14.3-42.1-42.9-54.3-58.2a485.35,485.35,0,0,1-99.2-221c-5.2-30.2-6.5-47.3-6.5-81,0-44.6,4-77.6,14.5-120,12.2-49.2,35-104.2,56.1-135.7,70-104.8,133.7-165.5,208.2-198.4a411.06,411.06,0,0,1,107.1-29.9C582.17-.38,581.87-.88,555.47,1.32Z"/>
        </g>
    </g>
</svg>