<svg xmlns="http://www.w3.org/2000/svg" xmlns:xlink="http://www.w3.org/1999/xlink" viewBox="0 0 586.52 586.36"><defs><style>.cls-1{filter:url(#luminosity-invert-noclip);}.cls-2{fill:#fff;}.cls-3{mask:url(#mask);}</style><filter id="luminosity-invert-noclip" x="0" y="0" width="1022.03" height="696.17" filterUnits="userSpaceOnUse" color-interpolation-filters="sRGB"><feColorMatrix values="-1 0 0 0 1 0 -1 0 0 1 0 0 -1 0 1 0 0 0 1 0" result="invert"/><feFlood flood-color="#fff" result="bg"/><feBlend in="invert" in2="bg"/></filter><mask id="mask" x="0" y="0" width="1022.03" height="696.17" maskUnits="userSpaceOnUse"><g id="Layer_1-2" data-name="Layer 1-2" class="cls-1"><path class="cls-2" d="M647.33,5.07C501.57-15.16,357.76,32,273.66,127.43c-35.37,40.22-57.6,84.53-68.37,136.15-14.36,68.75-4.86,135.16,28.84,201.71,20.73,40.92,55.64,85.05,91.68,116.2C370.44,619.85,421.47,649,481.26,670c16.93,5.93,24.32,7.84,58.73,15s41.94,8.4,59.83,9.73c74.29,5.43,145-4.52,208.19-29.48,18.08-7.15,57.7-28.39,74-39.62,77.35-53.44,124.78-126.56,136.88-210.78a274.63,274.63,0,0,0-1.67-92.13C989.64,162.78,836.38,31.34,647.33,5.07Z"/></g></mask></defs><title>Asset 1</title><g id="Layer_2" data-name="Layer 2"><g id="Layer_1-2-2" data-name="Layer 1"><g class="cls-3"><g id="Layer_1-2-3" data-name="Layer 1-2"><path class="cls-2" d="M269.1,1c-104,8.5-196.9,72.8-241.4,167C9,207.66,0,248.46,0,293.36c0,59.8,16.2,113.5,49.2,163.1,20.3,30.5,50.9,61.2,80.4,80.9,36.5,24.2,76.1,39.6,120.6,46.7,12.6,2,18,2.3,42.9,2.3s30.3-.3,42.9-2.3c52.3-8.4,99.9-29,140.1-60.8,11.5-9.1,35.9-33.7,45.6-45.9,45.9-58,68.2-127.2,64.4-199.5a274.12,274.12,0,0,0-14.5-76.5C529.3,72.86,404-10,269.1,1Z"/></g></g></g></g></svg>