<svg xmlns="http://www.w3.org/2000/svg" viewBox="0 0 586.52 586.38">
  <title>Asset 1</title>
  <g id="Layer_2" data-name="Layer 2">
    <g id="Layer_1-2" data-name="Layer 1">
      <path d="M269.1,1c-104,8.5-196.9,72.8-241.4,167C9,207.68,0,248.48,0,293.38c0,59.8,16.2,113.5,49.2,163.1,20.3,30.5,50.9,61.2,80.4,80.9,36.5,24.2,76.1,39.6,120.6,46.7,12.6,2,18,2.3,42.9,2.3s30.3-.3,42.9-2.3c52.3-8.4,99.9-29,140.1-60.8,11.5-9.1,35.9-33.7,45.6-45.9,45.9-58,68.2-127.2,64.4-199.5a274,274,0,0,0-14.5-76.5C529.3,72.88,404-10,269.1,1Z" fill="white"/>
    </g>
  </g>
</svg>