<svg xmlns="http://www.w3.org/2000/svg" viewBox="0 0 2500 2500"><defs><style>.cls-1{fill:#fff;}</style></defs><title>Asset 1</title><g id="Layer_2" data-name="Layer 2"><g id="Layer_2-2" data-name="Layer 2"><path class="cls-1" d="M2500.25,179.35v2141.7c0,98.9-82.6,179.2-184.6,179.2H185c-102,0-184.7-80.2-184.7-179.2V179.35C.25,80.45,83,.25,185,.25h2130.7C2417.65.25,2500.25,80.45,2500.25,179.35Zm-665.3,1525c267.2,0,484.7-219.2,484.7-486.7-.2-267-217.7-484.8-484.9-484.8h0c-226.4,0-401.9,147.3-473.2,389.51-109-163.71-191.4-360.21-239.7-525.71H878.25v634.8c0,125.1-101.9,227.1-226.9,227.1s-226.8-102-226.8-227.1V596.64H180.85v634.8c-.9,260,210.5,473.41,470.1,473.41s471-213.41,471-473.41v-106.5c47.4,98.91,105.4,198.7,175.9,287.5l-149.3,702.71h249.5l108.1-509.7C1601,1666.25,1710,1704.35,1835,1704.35Z" transform="translate(-0.25 -0.25)"/><path class="cls-1" d="M1834.75,977.34c132.9,0,241,108.3,241,241.3-.4,132.6-108.5,240.9-241,240.9-98.4,0-190.5-41.69-274.3-109.6l20.4-95.8.9-3.5C1600,1148.64,1657.55,977.34,1834.75,977.34Z" transform="translate(-0.25 -0.25)"/></g></g></svg>