<svg id="Layer_1" data-name="Layer 1" xmlns="http://www.w3.org/2000/svg" viewBox="0 0 2500 2500"><defs><style>.cls-1{fill:#fff;}.cls-2{fill:none;}</style></defs><title>upwork-1</title><path class="cls-1" d="M2315.4,0H184.7C82.7,0,0,80.2,0,179.1V2320.8c0,99,82.7,179.2,184.7,179.2H2315.4c102,0,184.6-80.3,184.6-179.2V179.1C2500,80.2,2417.4,0,2315.4,0Z" transform="translate(0)"/><path class="cls-2" d="M1834.6,1453.7c-98.4,0-190.5-41.7-274.3-109.6l20.4-95.8.9-3.5c18.2-102,75.8-273.3,253-273.3,132.9,0,241,108.3,241,241.3-.4,132.6-108.5,240.9-241,240.9Zm0-726.7c-226.4,0-401.9,147.3-473.2,389.5-109-163.7-191.4-360.2-239.7-525.7H878.1v634.8c0,125.1-101.9,227.1-226.9,227.1s-226.8-102-226.8-227.1V590.8H180.7v634.8c-.9,260,210.5,473.4,470.1,473.4s471-213.4,471-473.4V1119.1c47.4,98.9,105.4,198.7,175.9,287.5l-149.3,702.7h249.5L1506,1599.6c94.8,60.8,203.8,98.9,328.8,98.9,267.2,0,484.7-219.2,484.7-486.7-.2-267-217.7-484.8-484.9-484.8Z" transform="translate(0)"/></svg>